<?xml version="1.0" encoding="UTF-8"?>
<svg id="Layer_1" xmlns="http://www.w3.org/2000/svg" version="1.1" viewBox="60 250 600 200">
  <!-- Generator: Adobe Illustrator 30.4.0, SVG Export Plug-In . SVG Version: 2.1.4 Build 226)  -->
  <defs>
    <style>
      .st0 {
        fill: #231f20;
      }

      .st1 {
        fill: #fff;
      }
    </style>
  </defs>
  <g>
    <g>
      <path class="st1" d="M-414.41,254.55l-.2-3.61v-5.05h4.98v15.86h-4.87l-5.66-8.64.2,3.61v5.02h-4.98v-15.86h4.87l5.66,8.66Z"/>
      <path class="st1" d="M-351.58,335.42v-15.86h12.93v3.7h-7.73v2.27h6.54v3.7h-6.54v2.49h8.04v3.7h-13.24Z"/>
      <path class="st1" d="M-415.81,398.6c-.09-.55-.38-.88-.75-1.08s-.84-.29-1.34-.29c-1.15,0-1.65.33-1.65.9,0,2.38,9.12.9,9.12,6.68,0,3.68-3.06,5.46-7.43,5.46s-6.92-2.45-7.03-5.31h4.98c.11.57.42.99.86,1.26.42.26.97.4,1.48.4,1.3,0,2.16-.42,2.16-1.17,0-2.4-9.12-.75-9.12-6.81,0-3.37,2.91-5.07,6.87-5.07,4.41,0,6.41,2.25,6.79,5.02h-4.94Z"/>
      <path class="st1" d="M-489.39,329.36h.04l1.78-9.81h5.02l-3.94,15.86h-5.11l-1.83-9.21h-.04l-1.81,9.21h-5.11l-3.94-15.86h5.02l1.78,9.81h.04l1.9-9.81h4.3l1.89,9.81Z"/>
      <path class="st1" d="M-363.41,362.12l-.54-4.5-51.18,6.09c.67-3.77,2.98-10.33,11.06-10.79,5.65-.32,11.95.4,18.62,1.17,7.08.81,14.39,1.65,20.96,1.14l-.35-4.52c-6.13.48-13.23-.33-20.09-1.12-4.81-.55-9.73-1.11-14.39-1.24v-19.84c3.07,3.29,7.43,5.36,12.27,5.36v-4.54c-6.77,0-12.27-5.5-12.27-12.27v-1.52c3.07,3.29,7.43,5.36,12.27,5.36v-4.54c-6.77,0-12.27-5.5-12.27-12.27h-4.54c0,6.77-5.5,12.27-12.27,12.27v4.54c4.84,0,9.2-2.07,12.27-5.36v1.52c0,6.77-5.5,12.27-12.27,12.27v4.54c4.84,0,9.2-2.07,12.27-5.36v19.88c-.15,0-.31,0-.46.02-7.04.4-11.13,4.26-13.34,8.59-2.21-4.33-6.29-8.19-13.34-8.59-.15,0-.31,0-.46-.02v-23.84c3.07,3.29,7.43,5.36,12.27,5.36v-4.54c-6.77,0-12.27-5.5-12.27-12.27v-1.52c3.07,3.29,7.43,5.36,12.27,5.36v-4.54c-6.77,0-12.27-5.5-12.27-12.27v-1.52c3.07,3.29,7.43,5.36,12.27,5.36v-4.54c-6.77,0-12.27-5.5-12.27-12.27h-4.54c0,6.77-5.5,12.27-12.27,12.27v4.54c4.84,0,9.2-2.07,12.27-5.36v1.52c0,6.77-5.5,12.27-12.27,12.27v4.54c4.84,0,9.2-2.07,12.27-5.36v1.52c0,6.77-5.5,12.27-12.27,12.27v4.54c4.84,0,9.2-2.07,12.27-5.36v23.81c-4.66.13-9.59.69-14.39,1.24-6.86.79-13.96,1.6-20.09,1.12l-.35,4.52c6.57.51,13.88-.33,20.96-1.14,6.67-.77,12.98-1.48,18.62-1.17,8.08.46,10.39,7.02,11.06,10.79l-51.18-6.09-.54,4.5,44.67,5.31c.16,3.45,4.89,5,9.58,5s9.41-1.55,9.58-5l44.67-5.31Z"/>
      <path class="st1" d="M-374.88,367.4l-11.6,1.38c-8.67,6.6-19.47,10.52-31.18,10.52s-22.51-3.93-31.18-10.52l-11.6-1.38-2.28,2.28,3.21,3.21,3.89-3.89c9.48,8.73,21.96,14.23,35.7,14.78v5.5h4.54v-5.5c13.74-.55,26.22-6.06,35.7-14.78l3.89,3.89,3.21-3.21-2.28-2.28Z"/>
      <path class="st1" d="M-356.2,325.56h-5.39c-.52-13.78-6.03-26.31-14.78-35.82l3.77-3.77-3.21-3.21-3.77,3.77c-9.5-8.79-22.02-14.34-35.82-14.89v-5.28h-4.54v5.28c-13.8.55-26.32,6.1-35.82,14.89l-3.77-3.77-3.21,3.21,3.77,3.77c-8.75,9.51-14.26,22.03-14.78,35.82h-5.39v4.54h5.39c.24,5.77,1.37,11.31,3.23,16.5,1.62.09,3.25.11,4.88.07-2.33-5.87-3.62-12.26-3.62-18.95,0-28.45,23.14-51.59,51.59-51.59s51.59,23.14,51.59,51.59c0,6.69-1.29,13.08-3.62,18.96,1.63.04,3.25.02,4.88-.07,1.86-5.19,2.99-10.73,3.23-16.5h5.39v-4.54Z"/>
    </g>
    <g>
      <path class="st1" d="M-616.06,424.01h22.07c12.2,0,16.93,7.74,16.93,15.69s-4.73,15.69-16.93,15.69h-11.31v17.54h-10.76v-48.93ZM-605.3,447.04h8.36c5,0,9.46-1.1,9.46-7.33s-4.45-7.33-9.46-7.33h-8.36v14.67Z"/>
      <path class="st1" d="M-545.2,422.85c15.14,0,24.05,11.31,24.05,25.83s-8.91,25.42-24.05,25.42-24.05-11.31-24.05-25.42,8.91-25.83,24.05-25.83ZM-545.2,465.06c9.66,0,13.29-8.22,13.29-16.38,0-8.57-3.63-16.79-13.29-16.79s-13.29,8.22-13.29,16.79,3.63,16.38,13.29,16.38Z"/>
      <path class="st1" d="M-501.07,433.06h-14.67v-9.05h40.09v9.05h-14.67v39.88h-10.76v-39.88Z"/>
      <path class="st1" d="M-457.76,424.01h11.03l18.3,48.93h-11.17l-3.7-10.9h-18.3l-3.84,10.9h-10.9l18.57-48.93ZM-458.79,454.03h12.68l-6.17-17.95h-.14l-6.37,17.95Z"/>
      <path class="st1" d="M-344.83,472.94h-10.69l-8.29-33.3h-.14l-8.16,33.3h-10.9l-12.95-48.93h10.76l7.74,33.3h.14l8.5-33.3h10.07l8.36,33.72h.14l8.02-33.72h10.55l-13.16,48.93Z"/>
      <path class="st1" d="M-319.27,424.01h10.76v48.93h-10.76v-48.93Z"/>
      <path class="st1" d="M-293.06,424.01h10.76v20.28l19.12-20.28h13.43l-19.12,19.33,20.97,29.6h-13.5l-14.73-22-6.17,6.24v15.76h-10.76v-48.93Z"/>
      <path class="st1" d="M-237.36,424.01h10.76v48.93h-10.76v-48.93Z"/>
    </g>
  </g>
  <g>
    <g>
      <path class="st0" d="M-414.41-521.45l-.2-3.61v-5.05h4.98v15.86h-4.87l-5.66-8.64.2,3.61v5.02h-4.98v-15.86h4.87l5.66,8.66Z"/>
      <path class="st0" d="M-351.58-440.58v-15.86h12.93v3.7h-7.73v2.27h6.54v3.7h-6.54v2.49h8.04v3.7h-13.24Z"/>
      <path class="st0" d="M-415.81-377.4c-.09-.55-.38-.88-.75-1.08s-.84-.29-1.34-.29c-1.15,0-1.65.33-1.65.9,0,2.38,9.12.9,9.12,6.68,0,3.68-3.06,5.46-7.43,5.46s-6.92-2.45-7.03-5.31h4.98c.11.57.42.99.86,1.26.42.26.97.4,1.48.4,1.3,0,2.16-.42,2.16-1.17,0-2.4-9.12-.75-9.12-6.81,0-3.37,2.91-5.07,6.87-5.07,4.41,0,6.41,2.25,6.79,5.02h-4.94Z"/>
      <path class="st0" d="M-489.39-446.64h.04l1.78-9.81h5.02l-3.94,15.86h-5.11l-1.83-9.21h-.04l-1.81,9.21h-5.11l-3.94-15.86h5.02l1.78,9.81h.04l1.9-9.81h4.3l1.89,9.81Z"/>
      <path class="st0" d="M-363.41-413.88l-.54-4.5-51.18,6.09c.67-3.77,2.98-10.33,11.06-10.79,5.65-.32,11.95.4,18.62,1.17,7.08.81,14.39,1.65,20.96,1.14l-.35-4.52c-6.13.48-13.23-.33-20.09-1.12-4.81-.55-9.73-1.11-14.39-1.24v-19.84c3.07,3.29,7.43,5.36,12.27,5.36v-4.54c-6.77,0-12.27-5.5-12.27-12.27v-1.52c3.07,3.29,7.43,5.36,12.27,5.36v-4.54c-6.77,0-12.27-5.5-12.27-12.27h-4.54c0,6.77-5.5,12.27-12.27,12.27v4.54c4.84,0,9.2-2.07,12.27-5.36v1.52c0,6.77-5.5,12.27-12.27,12.27v4.54c4.84,0,9.2-2.07,12.27-5.36v19.88c-.15,0-.31,0-.46.02-7.04.4-11.13,4.26-13.34,8.59-2.21-4.33-6.29-8.19-13.34-8.59-.15,0-.31,0-.46-.02v-23.84c3.07,3.29,7.43,5.36,12.27,5.36v-4.54c-6.77,0-12.27-5.5-12.27-12.27v-1.52c3.07,3.29,7.43,5.36,12.27,5.36v-4.54c-6.77,0-12.27-5.5-12.27-12.27v-1.52c3.07,3.29,7.43,5.36,12.27,5.36v-4.54c-6.77,0-12.27-5.5-12.27-12.27h-4.54c0,6.77-5.5,12.27-12.27,12.27v4.54c4.84,0,9.2-2.07,12.27-5.36v1.52c0,6.77-5.5,12.27-12.27,12.27v4.54c4.84,0,9.2-2.07,12.27-5.36v1.52c0,6.77-5.5,12.27-12.27,12.27v4.54c4.84,0,9.2-2.07,12.27-5.36v23.81c-4.66.13-9.59.69-14.39,1.24-6.86.79-13.96,1.6-20.09,1.12l-.35,4.52c6.57.51,13.88-.33,20.96-1.14,6.67-.77,12.98-1.48,18.62-1.17,8.08.46,10.39,7.02,11.06,10.79l-51.18-6.09-.54,4.5,44.67,5.31c.16,3.45,4.89,5,9.58,5s9.41-1.55,9.58-5l44.67-5.31Z"/>
      <path class="st0" d="M-374.88-408.6l-11.6,1.38c-8.67,6.6-19.47,10.52-31.18,10.52s-22.51-3.93-31.18-10.52l-11.6-1.38-2.28,2.28,3.21,3.21,3.89-3.89c9.48,8.73,21.96,14.23,35.7,14.78v5.5h4.54v-5.5c13.74-.55,26.22-6.06,35.7-14.78l3.89,3.89,3.21-3.21-2.28-2.28Z"/>
      <path class="st0" d="M-356.2-450.44h-5.39c-.52-13.78-6.03-26.31-14.78-35.82l3.77-3.77-3.21-3.21-3.77,3.77c-9.5-8.79-22.02-14.34-35.82-14.89v-5.28h-4.54v5.28c-13.8.55-26.32,6.1-35.82,14.89l-3.77-3.77-3.21,3.21,3.77,3.77c-8.75,9.51-14.26,22.03-14.78,35.82h-5.39v4.54h5.39c.24,5.77,1.37,11.31,3.23,16.5,1.62.09,3.25.11,4.88.07-2.33-5.87-3.62-12.26-3.62-18.95,0-28.45,23.14-51.59,51.59-51.59s51.59,23.14,51.59,51.59c0,6.69-1.29,13.08-3.62,18.96,1.63.04,3.25.02,4.88-.07,1.86-5.19,2.99-10.73,3.23-16.5h5.39v-4.54Z"/>
    </g>
    <g>
      <path class="st0" d="M-616.06-351.99h22.07c12.2,0,16.93,7.74,16.93,15.69s-4.73,15.69-16.93,15.69h-11.31v17.54h-10.76v-48.93ZM-605.3-328.96h8.36c5,0,9.46-1.1,9.46-7.33s-4.45-7.33-9.46-7.33h-8.36v14.67Z"/>
      <path class="st0" d="M-545.2-353.15c15.14,0,24.05,11.31,24.05,25.83s-8.91,25.42-24.05,25.42-24.05-11.31-24.05-25.42,8.91-25.83,24.05-25.83ZM-545.2-310.94c9.66,0,13.29-8.22,13.29-16.38,0-8.57-3.63-16.79-13.29-16.79s-13.29,8.22-13.29,16.79,3.63,16.38,13.29,16.38Z"/>
      <path class="st0" d="M-501.07-342.94h-14.67v-9.05h40.09v9.05h-14.67v39.88h-10.76v-39.88Z"/>
      <path class="st0" d="M-457.76-351.99h11.03l18.3,48.93h-11.17l-3.7-10.9h-18.3l-3.84,10.9h-10.9l18.57-48.93ZM-458.79-321.97h12.68l-6.17-17.95h-.14l-6.37,17.95Z"/>
      <path class="st0" d="M-344.83-303.06h-10.69l-8.29-33.3h-.14l-8.16,33.3h-10.9l-12.95-48.93h10.76l7.74,33.3h.14l8.5-33.3h10.07l8.36,33.72h.14l8.02-33.72h10.55l-13.16,48.93Z"/>
      <path class="st0" d="M-319.27-351.99h10.76v48.93h-10.76v-48.93Z"/>
      <path class="st0" d="M-293.06-351.99h10.76v20.28l19.12-20.28h13.43l-19.12,19.33,20.97,29.6h-13.5l-14.73-22-6.17,6.24v15.76h-10.76v-48.93Z"/>
      <path class="st0" d="M-237.36-351.99h10.76v48.93h-10.76v-48.93Z"/>
    </g>
  </g>
  <g>
    <g>
      <path class="st1" d="M160.59,286.46l-.2-3.61v-5.05h4.98v15.86h-4.87l-5.66-8.64.2,3.61v5.02h-4.98v-15.86h4.87l5.66,8.66Z"/>
      <path class="st1" d="M223.42,367.34v-15.86h12.93v3.7h-7.73v2.27h6.54v3.7h-6.54v2.49h8.04v3.7h-13.24Z"/>
      <path class="st1" d="M159.19,430.52c-.09-.55-.38-.88-.75-1.08s-.84-.29-1.34-.29c-1.15,0-1.65.33-1.65.9,0,2.38,9.12.9,9.12,6.68,0,3.68-3.06,5.46-7.43,5.46s-6.92-2.45-7.03-5.31h4.98c.11.57.42.99.86,1.26.42.26.97.4,1.48.4,1.3,0,2.16-.42,2.16-1.17,0-2.4-9.12-.75-9.12-6.81,0-3.37,2.91-5.07,6.87-5.07,4.41,0,6.41,2.25,6.79,5.02h-4.94Z"/>
      <path class="st1" d="M85.61,361.28h.04l1.78-9.81h5.02l-3.94,15.86h-5.11l-1.83-9.21h-.04l-1.81,9.21h-5.11l-3.94-15.86h5.02l1.78,9.81h.04l1.9-9.81h4.3l1.89,9.81Z"/>
      <path class="st1" d="M211.59,394.04l-.54-4.5-51.18,6.09c.67-3.77,2.98-10.33,11.06-10.79,5.65-.32,11.95.4,18.62,1.17,7.08.81,14.39,1.65,20.96,1.14l-.35-4.52c-6.13.48-13.23-.33-20.09-1.12-4.81-.55-9.73-1.11-14.39-1.24v-19.84c3.07,3.29,7.43,5.36,12.27,5.36v-4.54c-6.77,0-12.27-5.5-12.27-12.27v-1.52c3.07,3.29,7.43,5.36,12.27,5.36v-4.54c-6.77,0-12.27-5.5-12.27-12.27h-4.54c0,6.77-5.5,12.27-12.27,12.27v4.54c4.84,0,9.2-2.07,12.27-5.36v1.52c0,6.77-5.5,12.27-12.27,12.27v4.54c4.84,0,9.2-2.07,12.27-5.36v19.88c-.15,0-.31,0-.46.02-7.04.4-11.13,4.26-13.34,8.59-2.21-4.33-6.29-8.19-13.34-8.59-.15,0-.31,0-.46-.02v-23.84c3.07,3.29,7.43,5.36,12.27,5.36v-4.54c-6.77,0-12.27-5.5-12.27-12.27v-1.52c3.07,3.29,7.43,5.36,12.27,5.36v-4.54c-6.77,0-12.27-5.5-12.27-12.27v-1.52c3.07,3.29,7.43,5.36,12.27,5.36v-4.54c-6.77,0-12.27-5.5-12.27-12.27h-4.54c0,6.77-5.5,12.27-12.27,12.27v4.54c4.84,0,9.2-2.07,12.27-5.36v1.52c0,6.77-5.5,12.27-12.27,12.27v4.54c4.84,0,9.2-2.07,12.27-5.36v1.52c0,6.77-5.5,12.27-12.27,12.27v4.54c4.84,0,9.2-2.07,12.27-5.36v23.81c-4.66.13-9.59.69-14.39,1.24-6.86.79-13.96,1.6-20.09,1.12l-.35,4.52c6.57.51,13.88-.33,20.96-1.14,6.67-.77,12.98-1.48,18.62-1.17,8.08.46,10.39,7.02,11.06,10.79l-51.18-6.09-.54,4.5,44.67,5.31c.16,3.45,4.89,5,9.58,5s9.41-1.55,9.58-5l44.67-5.31Z"/>
      <path class="st1" d="M200.12,399.31l-11.6,1.38c-8.67,6.6-19.47,10.52-31.18,10.52s-22.51-3.93-31.18-10.52l-11.6-1.38-2.28,2.28,3.21,3.21,3.89-3.89c9.48,8.73,21.96,14.23,35.7,14.78v5.5h4.54v-5.5c13.74-.55,26.22-6.06,35.7-14.78l3.89,3.89,3.21-3.21-2.28-2.28Z"/>
      <path class="st1" d="M218.81,357.47h-5.39c-.52-13.78-6.03-26.31-14.78-35.82l3.77-3.77-3.21-3.21-3.77,3.77c-9.5-8.79-22.02-14.34-35.82-14.89v-5.28h-4.54v5.28c-13.8.55-26.32,6.1-35.82,14.89l-3.77-3.77-3.21,3.21,3.77,3.77c-8.75,9.51-14.26,22.03-14.78,35.82h-5.39v4.54h5.39c.24,5.77,1.37,11.31,3.23,16.5,1.62.09,3.25.11,4.88.07-2.33-5.87-3.62-12.26-3.62-18.95,0-28.45,23.14-51.59,51.59-51.59s51.59,23.14,51.59,51.59c0,6.69-1.29,13.08-3.62,18.96,1.63.04,3.25.02,4.88-.07,1.86-5.19,2.99-10.73,3.23-16.5h5.39v-4.54Z"/>
    </g>
    <g>
      <path class="st1" d="M270.84,335.45h22.07c12.2,0,16.93,7.74,16.93,15.69s-4.73,15.69-16.93,15.69h-11.31v17.54h-10.76v-48.93ZM281.6,358.47h8.36c5,0,9.46-1.1,9.46-7.33s-4.45-7.33-9.46-7.33h-8.36v14.67Z"/>
      <path class="st1" d="M341.7,334.28c15.14,0,24.05,11.31,24.05,25.83s-8.91,25.42-24.05,25.42-24.05-11.31-24.05-25.42,8.91-25.83,24.05-25.83ZM341.7,376.49c9.66,0,13.29-8.22,13.29-16.38,0-8.57-3.63-16.79-13.29-16.79s-13.29,8.22-13.29,16.79,3.63,16.38,13.29,16.38Z"/>
      <path class="st1" d="M385.83,344.49h-14.67v-9.05h40.09v9.05h-14.67v39.88h-10.76v-39.88Z"/>
      <path class="st1" d="M429.14,335.45h11.03l18.3,48.93h-11.17l-3.7-10.9h-18.3l-3.84,10.9h-10.9l18.57-48.93ZM428.11,365.46h12.68l-6.17-17.95h-.14l-6.37,17.95Z"/>
      <path class="st1" d="M531.11,384.38h-10.69l-8.29-33.3h-.14l-8.16,33.3h-10.9l-12.95-48.93h10.76l7.74,33.3h.14l8.5-33.3h10.07l8.36,33.72h.14l8.02-33.72h10.55l-13.16,48.93Z"/>
      <path class="st1" d="M556.66,335.45h10.76v48.93h-10.76v-48.93Z"/>
      <path class="st1" d="M582.88,335.45h10.76v20.28l19.12-20.28h13.43l-19.12,19.32,20.97,29.6h-13.5l-14.73-22-6.17,6.24v15.76h-10.76v-48.93Z"/>
      <path class="st1" d="M638.57,335.45h10.76v48.93h-10.76v-48.93Z"/>
    </g>
  </g>
  <g>
    <g>
      <path class="st0" d="M160.59-489.54l-.2-3.61v-5.05h4.98v15.86h-4.87l-5.66-8.64.2,3.61v5.02h-4.98v-15.86h4.87l5.66,8.66Z"/>
      <path class="st0" d="M223.42-408.66v-15.86h12.93v3.7h-7.73v2.27h6.54v3.7h-6.54v2.49h8.04v3.7h-13.24Z"/>
      <path class="st0" d="M159.19-345.48c-.09-.55-.38-.88-.75-1.08s-.84-.29-1.34-.29c-1.15,0-1.65.33-1.65.9,0,2.38,9.12.9,9.12,6.68,0,3.68-3.06,5.46-7.43,5.46s-6.92-2.45-7.03-5.31h4.98c.11.57.42.99.86,1.26.42.26.97.4,1.48.4,1.3,0,2.16-.42,2.16-1.17,0-2.4-9.12-.75-9.12-6.81,0-3.37,2.91-5.07,6.87-5.07,4.41,0,6.41,2.25,6.79,5.02h-4.94Z"/>
      <path class="st0" d="M85.61-414.72h.04l1.78-9.81h5.02l-3.94,15.86h-5.11l-1.83-9.21h-.04l-1.81,9.21h-5.11l-3.94-15.86h5.02l1.78,9.81h.04l1.9-9.81h4.3l1.89,9.81Z"/>
      <path class="st0" d="M211.59-381.96l-.54-4.5-51.18,6.09c.67-3.77,2.98-10.33,11.06-10.79,5.65-.32,11.95.4,18.62,1.17,7.08.81,14.39,1.65,20.96,1.14l-.35-4.52c-6.13.48-13.23-.33-20.09-1.12-4.81-.55-9.73-1.11-14.39-1.24v-19.84c3.07,3.29,7.43,5.36,12.27,5.36v-4.54c-6.77,0-12.27-5.5-12.27-12.27v-1.52c3.07,3.29,7.43,5.36,12.27,5.36v-4.54c-6.77,0-12.27-5.5-12.27-12.27h-4.54c0,6.77-5.5,12.27-12.27,12.27v4.54c4.84,0,9.2-2.07,12.27-5.36v1.52c0,6.77-5.5,12.27-12.27,12.27v4.54c4.84,0,9.2-2.07,12.27-5.36v19.88c-.15,0-.31,0-.46.02-7.04.4-11.13,4.26-13.34,8.59-2.21-4.33-6.29-8.19-13.34-8.59-.15,0-.31,0-.46-.02v-23.84c3.07,3.29,7.43,5.36,12.27,5.36v-4.54c-6.77,0-12.27-5.5-12.27-12.27v-1.52c3.07,3.29,7.43,5.36,12.27,5.36v-4.54c-6.77,0-12.27-5.5-12.27-12.27v-1.52c3.07,3.29,7.43,5.36,12.27,5.36v-4.54c-6.77,0-12.27-5.5-12.27-12.27h-4.54c0,6.77-5.5,12.27-12.27,12.27v4.54c4.84,0,9.2-2.07,12.27-5.36v1.52c0,6.77-5.5,12.27-12.27,12.27v4.54c4.84,0,9.2-2.07,12.27-5.36v1.52c0,6.77-5.5,12.27-12.27,12.27v4.54c4.84,0,9.2-2.07,12.27-5.36v23.81c-4.66.13-9.59.69-14.39,1.24-6.86.79-13.96,1.6-20.09,1.12l-.35,4.52c6.57.51,13.88-.33,20.96-1.14,6.67-.77,12.98-1.48,18.62-1.17,8.08.46,10.39,7.02,11.06,10.79l-51.18-6.09-.54,4.5,44.67,5.31c.16,3.45,4.89,5,9.58,5s9.41-1.55,9.58-5l44.67-5.31Z"/>
      <path class="st0" d="M200.12-376.69l-11.6,1.38c-8.67,6.6-19.47,10.52-31.18,10.52s-22.51-3.93-31.18-10.52l-11.6-1.38-2.28,2.28,3.21,3.21,3.89-3.89c9.48,8.73,21.96,14.23,35.7,14.78v5.5h4.54v-5.5c13.74-.55,26.22-6.06,35.7-14.78l3.89,3.89,3.21-3.21-2.28-2.28Z"/>
      <path class="st0" d="M218.81-418.53h-5.39c-.52-13.78-6.03-26.31-14.78-35.82l3.77-3.77-3.21-3.21-3.77,3.77c-9.5-8.79-22.02-14.34-35.82-14.89v-5.28h-4.54v5.28c-13.8.55-26.32,6.1-35.82,14.89l-3.77-3.77-3.21,3.21,3.77,3.77c-8.75,9.51-14.26,22.03-14.78,35.82h-5.39v4.54h5.39c.24,5.77,1.37,11.31,3.23,16.5,1.62.09,3.25.11,4.88.07-2.33-5.87-3.62-12.26-3.62-18.95,0-28.45,23.14-51.59,51.59-51.59s51.59,23.14,51.59,51.59c0,6.69-1.29,13.08-3.62,18.96,1.63.04,3.25.02,4.88-.07,1.86-5.19,2.99-10.73,3.23-16.5h5.39v-4.54Z"/>
    </g>
    <g>
      <path class="st0" d="M270.84-440.55h22.07c12.2,0,16.93,7.74,16.93,15.69s-4.73,15.69-16.93,15.69h-11.31v17.54h-10.76v-48.93ZM281.6-417.53h8.36c5,0,9.46-1.1,9.46-7.33s-4.45-7.33-9.46-7.33h-8.36v14.67Z"/>
      <path class="st0" d="M341.7-441.72c15.14,0,24.05,11.31,24.05,25.83s-8.91,25.42-24.05,25.42-24.05-11.31-24.05-25.42,8.91-25.83,24.05-25.83ZM341.7-399.51c9.66,0,13.29-8.22,13.29-16.38,0-8.57-3.63-16.79-13.29-16.79s-13.29,8.22-13.29,16.79,3.63,16.38,13.29,16.38Z"/>
      <path class="st0" d="M385.83-431.51h-14.67v-9.05h40.09v9.05h-14.67v39.88h-10.76v-39.88Z"/>
      <path class="st0" d="M429.14-440.55h11.03l18.3,48.93h-11.17l-3.7-10.9h-18.3l-3.84,10.9h-10.9l18.57-48.93ZM428.11-410.54h12.68l-6.17-17.95h-.14l-6.37,17.95Z"/>
      <path class="st0" d="M531.11-391.62h-10.69l-8.29-33.3h-.14l-8.16,33.3h-10.9l-12.95-48.93h10.76l7.74,33.3h.14l8.5-33.3h10.07l8.36,33.72h.14l8.02-33.72h10.55l-13.16,48.93Z"/>
      <path class="st0" d="M556.66-440.55h10.76v48.93h-10.76v-48.93Z"/>
      <path class="st0" d="M582.88-440.55h10.76v20.28l19.12-20.28h13.43l-19.12,19.32,20.97,29.6h-13.5l-14.73-22-6.17,6.24v15.76h-10.76v-48.93Z"/>
      <path class="st0" d="M638.57-440.55h10.76v48.93h-10.76v-48.93Z"/>
    </g>
  </g>
  <g>
    <path class="st1" d="M-1179.16,176.41l-.49-9.02v-12.6h12.43v39.61h-12.16l-14.14-21.56.49,9.02v12.54h-12.43v-39.61h12.16l14.14,21.62Z"/>
    <path class="st1" d="M-1022.29,378.32v-39.61h32.29v9.24h-19.31v5.67h16.34v9.24h-16.34v6.22h20.08v9.24h-33.06Z"/>
    <path class="st1" d="M-1182.65,536.06c-.22-1.38-.94-2.2-1.87-2.7s-2.09-.71-3.35-.71c-2.86,0-4.13.82-4.13,2.26,0,5.94,22.77,2.26,22.77,16.67,0,9.19-7.65,13.64-18.54,13.64s-17.27-6.11-17.55-13.26h12.43c.28,1.43,1.05,2.48,2.15,3.14,1.05.66,2.42.99,3.69.99,3.25,0,5.39-1.05,5.39-2.92,0-6-22.77-1.87-22.77-17,0-8.42,7.26-12.65,17.16-12.65,11,0,16.01,5.61,16.94,12.54h-12.32Z"/>
    <path class="st1" d="M-1366.37,363.19h.11l4.46-24.48h12.54l-9.85,39.61h-12.76l-4.57-22.99h-.11l-4.51,22.99h-12.76l-9.85-39.61h12.54l4.46,24.48h.11l4.73-24.48h10.73l4.73,24.48Z"/>
    <path class="st1" d="M-1051.83,444.98l-1.34-11.24-127.77,15.2c1.66-9.4,7.45-25.78,27.61-26.93,14.1-.8,29.83,1,46.49,2.91,17.67,2.02,35.93,4.12,52.33,2.84l-.88-11.29c-15.3,1.19-33.02-.83-50.15-2.8-12-1.38-24.3-2.78-35.94-3.1v-49.53c7.66,8.21,18.54,13.38,30.63,13.38v-11.33c-16.89,0-30.63-13.74-30.63-30.63v-3.81c7.66,8.21,18.54,13.38,30.63,13.38v-11.33c-16.89,0-30.63-13.74-30.63-30.63h-11.33c0,16.89-13.74,30.63-30.63,30.63v11.33c12.09,0,22.97-5.17,30.63-13.38v3.81c0,16.89-13.74,30.63-30.63,30.63v11.33c12.09,0,22.97-5.17,30.63-13.38v49.63c-.38.02-.78.02-1.16.04-17.59,1-27.78,10.63-33.3,21.45-5.52-10.81-15.72-20.44-33.3-21.45-.38-.02-.78-.02-1.16-.04v-59.53c7.66,8.21,18.54,13.38,30.63,13.38v-11.33c-16.89,0-30.63-13.74-30.63-30.63v-3.81c7.66,8.21,18.54,13.38,30.63,13.38v-11.33c-16.89,0-30.63-13.74-30.63-30.63v-3.81c7.66,8.21,18.54,13.38,30.63,13.38v-11.33c-16.89,0-30.63-13.74-30.63-30.63h-11.33c0,16.89-13.74,30.63-30.63,30.63v11.33c12.09,0,22.97-5.17,30.63-13.38v3.81c0,16.89-13.74,30.63-30.63,30.63v11.33c12.09,0,22.97-5.17,30.63-13.38v3.81c0,16.89-13.74,30.63-30.63,30.63v11.33c12.09,0,22.97-5.17,30.63-13.38v59.44c-11.64.32-23.94,1.72-35.94,3.09-17.13,1.97-34.85,4-50.15,2.8l-.88,11.29c16.39,1.28,34.66-.81,52.33-2.84,16.66-1.91,32.4-3.7,46.49-2.91,20.17,1.15,25.95,17.53,27.61,26.93l-127.77-15.2-1.34,11.24,111.53,13.27c.41,8.6,12.2,12.47,23.91,12.47s23.5-3.87,23.91-12.47l111.53-13.27Z"/>
    <path class="st1" d="M-1080.46,458.16l-28.96,3.45c-21.64,16.47-48.62,26.27-77.85,26.27s-56.21-9.8-77.85-26.27l-28.96-3.45-5.7,5.7,8.01,8.01,9.71-9.71c23.67,21.79,54.84,35.53,89.14,36.91v13.74h11.33v-13.74c34.3-1.37,65.46-15.12,89.14-36.91l9.71,9.71,8.01-8.01-5.7-5.7Z"/>
    <path class="st1" d="M-1033.81,353.69h-13.45c-1.31-34.41-15.06-65.68-36.91-89.42l9.42-9.42-8.01-8.01-9.41,9.41c-23.71-21.94-54.98-35.8-89.43-37.18v-13.18h-11.33v13.18c-34.44,1.38-65.72,15.23-89.43,37.18l-9.41-9.41-8.01,8.01,9.42,9.42c-21.85,23.74-35.6,55.01-36.91,89.42h-13.45v11.33h13.45c.61,14.4,3.41,28.23,8.07,41.19,4.05.24,8.1.28,12.18.18-5.81-14.66-9.05-30.62-9.05-47.32,0-71.03,57.78-128.81,128.81-128.81s128.81,57.78,128.81,128.81c0,16.71-3.23,32.66-9.05,47.32,4.07.1,8.13.05,12.18-.18,4.65-12.96,7.46-26.8,8.07-41.19h13.45v-11.33Z"/>
  </g>
  <g>
    <path class="st0" d="M-1179.16-599.59l-.49-9.02v-12.6h12.43v39.61h-12.16l-14.14-21.56.49,9.02v12.54h-12.43v-39.61h12.16l14.14,21.62Z"/>
    <path class="st0" d="M-1022.29-397.68v-39.61h32.29v9.24h-19.31v5.67h16.34v9.24h-16.34v6.22h20.08v9.24h-33.06Z"/>
    <path class="st0" d="M-1182.65-239.94c-.22-1.38-.94-2.2-1.87-2.7s-2.09-.71-3.35-.71c-2.86,0-4.13.82-4.13,2.26,0,5.94,22.77,2.26,22.77,16.67,0,9.19-7.65,13.64-18.54,13.64s-17.27-6.11-17.55-13.26h12.43c.28,1.43,1.05,2.48,2.15,3.14,1.05.66,2.42.99,3.69.99,3.25,0,5.39-1.05,5.39-2.92,0-6-22.77-1.87-22.77-17,0-8.42,7.26-12.65,17.16-12.65,11,0,16.01,5.61,16.94,12.54h-12.32Z"/>
    <path class="st0" d="M-1366.37-412.81h.11l4.46-24.48h12.54l-9.85,39.61h-12.76l-4.57-22.99h-.11l-4.51,22.99h-12.76l-9.85-39.61h12.54l4.46,24.48h.11l4.73-24.48h10.73l4.73,24.48Z"/>
    <path class="st0" d="M-1051.83-331.02l-1.34-11.24-127.77,15.2c1.66-9.4,7.45-25.78,27.61-26.93,14.1-.8,29.83,1,46.49,2.91,17.67,2.02,35.93,4.12,52.33,2.84l-.88-11.29c-15.3,1.19-33.02-.83-50.15-2.8-12-1.38-24.3-2.78-35.94-3.1v-49.53c7.66,8.21,18.54,13.38,30.63,13.38v-11.33c-16.89,0-30.63-13.74-30.63-30.63v-3.81c7.66,8.21,18.54,13.38,30.63,13.38v-11.33c-16.89,0-30.63-13.74-30.63-30.63h-11.33c0,16.89-13.74,30.63-30.63,30.63v11.33c12.09,0,22.97-5.17,30.63-13.38v3.81c0,16.89-13.74,30.63-30.63,30.63v11.33c12.09,0,22.97-5.17,30.63-13.38v49.63c-.38.02-.78.02-1.16.04-17.59,1-27.78,10.63-33.3,21.45-5.52-10.81-15.72-20.44-33.3-21.45-.38-.02-.78-.02-1.16-.04v-59.53c7.66,8.21,18.54,13.38,30.63,13.38v-11.33c-16.89,0-30.63-13.74-30.63-30.63v-3.81c7.66,8.21,18.54,13.38,30.63,13.38v-11.33c-16.89,0-30.63-13.74-30.63-30.63v-3.81c7.66,8.21,18.54,13.38,30.63,13.38v-11.33c-16.89,0-30.63-13.74-30.63-30.63h-11.33c0,16.89-13.74,30.63-30.63,30.63v11.33c12.09,0,22.97-5.17,30.63-13.38v3.81c0,16.89-13.74,30.63-30.63,30.63v11.33c12.09,0,22.97-5.17,30.63-13.38v3.81c0,16.89-13.74,30.63-30.63,30.63v11.33c12.09,0,22.97-5.17,30.63-13.38v59.44c-11.64.32-23.94,1.72-35.94,3.09-17.13,1.97-34.85,4-50.15,2.8l-.88,11.29c16.39,1.28,34.66-.81,52.33-2.84,16.66-1.91,32.4-3.7,46.49-2.91,20.17,1.15,25.95,17.53,27.61,26.93l-127.77-15.2-1.34,11.24,111.53,13.27c.41,8.6,12.2,12.47,23.91,12.47s23.5-3.87,23.91-12.47l111.53-13.27Z"/>
    <path class="st0" d="M-1080.46-317.84l-28.96,3.45c-21.64,16.47-48.62,26.27-77.85,26.27s-56.21-9.8-77.85-26.27l-28.96-3.45-5.7,5.7,8.01,8.01,9.71-9.71c23.67,21.79,54.84,35.53,89.14,36.91v13.74h11.33v-13.74c34.3-1.37,65.46-15.12,89.14-36.91l9.71,9.71,8.01-8.01-5.7-5.7Z"/>
    <path class="st0" d="M-1033.81-422.31h-13.45c-1.31-34.41-15.06-65.68-36.91-89.42l9.42-9.42-8.01-8.01-9.41,9.41c-23.71-21.94-54.98-35.8-89.43-37.18v-13.18h-11.33v13.18c-34.44,1.38-65.72,15.23-89.43,37.18l-9.41-9.41-8.01,8.01,9.42,9.42c-21.85,23.74-35.6,55.01-36.91,89.42h-13.45v11.33h13.45c.61,14.4,3.41,28.23,8.07,41.19,4.05.24,8.1.28,12.18.18-5.81-14.66-9.05-30.62-9.05-47.32,0-71.03,57.78-128.81,128.81-128.81s128.81,57.78,128.81,128.81c0,16.71-3.23,32.66-9.05,47.32,4.07.1,8.13.05,12.18-.18,4.65-12.96,7.46-26.8,8.07-41.19h13.45v-11.33Z"/>
  </g>
</svg>